<svg width="101" height="101" viewBox="0 0 101 101" fill="none" xmlns="http://www.w3.org/2000/svg">
<rect x="0.810364" y="0.344727" width="99.6724" height="99.6724" rx="35.3448" fill="#FAB1A0"/>
<mask id="mask0_208_9" style="mask-type:alpha" maskUnits="userSpaceOnUse" x="0" y="0" width="101" height="101">
<rect x="0.810364" y="0.344727" width="99.6724" height="99.6724" rx="35.3448" fill="#414141"/>
</mask>
<g mask="url(#mask0_208_9)">
<path fill-rule="evenodd" clip-rule="evenodd" d="M65.2042 46.4355C68.6663 42.8177 70.7931 37.9115 70.7931 32.5086C70.7931 21.382 61.7732 12.3621 50.6466 12.3621C39.5199 12.3621 30.5 21.382 30.5 32.5086C30.5 38.0223 32.7149 43.0186 36.3035 46.6564C24.1195 52.2344 15.6552 64.5339 15.6552 78.8103C15.6552 98.3307 31.4796 114.155 51 114.155C70.5204 114.155 86.3449 98.3307 86.3449 78.8103C86.3449 64.3424 77.6519 51.9047 65.2042 46.4355Z" fill="#2F3952" fill-opacity="0.9"/>
</g>
</svg>
