<svg width="150" height="123" viewBox="0 0 150 123" fill="none" xmlns="http://www.w3.org/2000/svg">
<path fill-rule="evenodd" clip-rule="evenodd" d="M3.7094 0.645273C2.92863 0.991203 1.77479 1.88178 1.1453 2.62438L0 3.97466V61.4974V119.02L1.15128 120.377C3.55855 123.216 -2.65513 122.996 75 122.996C152.655 122.996 146.441 123.216 148.849 120.377L150 119.02V61.4974V3.97466L148.849 2.61746C146.441 -0.221857 152.665 -0.00238575 74.9355 0.00760778C11.1769 0.0156795 5.00513 0.0706456 3.7094 0.645273ZM143.376 48.6211C143.376 71.981 143.293 91.0936 143.191 91.0936C143.089 91.0936 137.886 86.093 131.629 79.9808C124.877 73.3855 119.671 68.6201 118.823 68.2576C116.998 67.4789 115.047 67.4816 113.211 68.2653C112.305 68.652 108.311 72.398 102.533 78.28C97.4564 83.4478 93.1513 87.6236 92.9662 87.5594C92.7816 87.4948 80.3936 74.9648 65.4376 59.7151C47.0863 41.0026 37.7731 31.7863 36.7932 31.3681C34.9444 30.579 33.0017 30.5797 31.1483 31.3711C29.9705 31.8739 17.3564 44.4915 7.3859 55.1404C6.69145 55.8826 6.65171 54.6042 6.63803 31.0364L6.62393 6.14863H75H143.376V48.6211ZM98.1231 18.8642C92.5786 19.8436 86.7363 23.9206 84.1603 28.6091C75.5453 44.2866 93.5385 60.8782 111.127 53.4753C119.086 50.1255 123.896 42.0142 122.552 34.2074C120.757 23.7784 109.682 16.8225 98.1231 18.8642ZM108.153 25.7659C110.812 26.9236 113.433 29.2836 114.766 31.719C116.268 34.4645 116.268 39.3314 114.766 42.0769C113.429 44.5192 110.84 46.845 108.12 48.0442C105.052 49.3972 99.6491 49.3972 96.5812 48.0442C88.9748 44.6898 86.415 36.4148 91.0321 30.1047C92.6286 27.9222 95.5231 25.9227 98.2462 25.1202C100.857 24.3511 105.616 24.6613 108.153 25.7659ZM101.084 105.508C106.364 111.005 110.948 115.805 111.27 116.174C111.828 116.813 109.27 116.846 59.2402 116.846H6.62393V90.9875V65.1285L11.859 59.7347C14.738 56.7678 20.8957 50.4146 25.5423 45.6161L33.9906 36.8922L62.7376 66.2032C78.5487 82.3239 95.8047 100.011 101.084 105.508ZM143.376 108.766V116.846L132.158 116.83L120.94 116.814L109.829 105.272C103.718 98.9235 98.4876 93.439 98.2064 93.0842C97.7718 92.5361 98.1265 92.0015 100.557 89.5377C102.131 87.9418 106.259 83.7499 109.731 80.2218L116.043 73.8075L129.709 87.2465L143.376 100.685V108.766Z" fill="#2F3952"/>
</svg>
