<svg width="64" height="64" viewBox="0 0 64 64" fill="none" xmlns="http://www.w3.org/2000/svg">
<path d="M0 32C0 14.3271 14.3271 0 32 0C49.6729 0 64 14.3271 64 32C64 49.6729 49.6729 64 32 64C14.3271 64 0 49.6729 0 32Z" fill="#FFCC4D"/>
<path d="M15.4046 22.8817C15.721 23.1679 16.1939 23.1857 16.5334 22.9332C16.6028 22.8817 23.5059 17.7777 32.0001 17.7777C40.473 17.7777 47.3992 22.8817 47.4668 22.9332C47.8063 23.1857 48.2792 23.1643 48.5957 22.8817C48.9103 22.5972 48.9814 22.1279 48.7628 21.7652C48.5334 21.3848 43.0437 12.4443 32.0001 12.4443C20.9566 12.4443 15.465 21.383 15.2374 21.7652C15.0188 22.1297 15.0881 22.5972 15.4046 22.8817Z" fill="#664500"/>
<path d="M20.4444 44.4444C22.899 44.4444 24.8889 41.6587 24.8889 38.2222C24.8889 34.7858 22.899 32 20.4444 32C17.9898 32 16 34.7858 16 38.2222C16 41.6587 17.9898 44.4444 20.4444 44.4444Z" fill="#664500"/>
<path d="M43.5555 44.4444C46.0101 44.4444 48 41.6587 48 38.2222C48 34.7858 46.0101 32 43.5555 32C41.1009 32 39.1111 34.7858 39.1111 38.2222C39.1111 41.6587 41.1009 44.4444 43.5555 44.4444Z" fill="#664500"/>
</svg>
