<svg width="64" height="64" viewBox="0 0 64 64" fill="none" xmlns="http://www.w3.org/2000/svg">
<path d="M64 32C64 49.6729 49.6729 64 32 64C14.3289 64 0 49.6729 0 32C0 14.3289 14.3289 0 32 0C49.6729 0 64 14.3289 64 32Z" fill="#FFCC4D"/>
<path d="M20.4444 35.5555C22.899 35.5555 24.8889 32.7697 24.8889 29.3333C24.8889 25.8969 22.899 23.1111 20.4444 23.1111C17.9898 23.1111 16 25.8969 16 29.3333C16 32.7697 17.9898 35.5555 20.4444 35.5555Z" fill="#664500"/>
<path d="M43.5555 35.5555C46.0101 35.5555 48 32.7697 48 29.3333C48 25.8969 46.0101 23.1111 43.5555 23.1111C41.1009 23.1111 39.1111 25.8969 39.1111 29.3333C39.1111 32.7697 41.1009 35.5555 43.5555 35.5555Z" fill="#664500"/>
</svg>
