<svg width="147" height="176" viewBox="0 0 147 176" fill="none" xmlns="http://www.w3.org/2000/svg">
<path fill-rule="evenodd" clip-rule="evenodd" d="M17.3742 0.438029C8.85213 2.29166 1.7075 9.70826 0.259039 18.2057C0.0293155 19.5532 -0.0393387 39.9658 0.0205128 89.1904L0.10413 158.284L1.0239 160.854C3.47693 167.71 8.28119 172.514 15.1371 174.967L17.7075 175.887L72.2779 175.969C122.075 176.044 127.041 176.009 129.049 175.567C133.53 174.583 137.07 172.624 140.242 169.377C143.407 166.138 145.05 163.182 146.085 158.87C146.63 156.6 146.648 154.754 146.65 102.392L146.652 48.2611L122.52 24.1307L98.3881 0L58.7814 0.0231785C26.9223 0.0419554 18.8224 0.123222 17.3742 0.438029ZM87.9743 36.6737V58.6779H109.978H131.983V106.74C131.983 160.797 132.149 156.812 129.79 159.171C127.424 161.538 131.893 161.364 73.3048 161.364C14.7167 161.364 19.1859 161.538 16.8197 159.171C14.4353 156.787 14.6269 163.003 14.6269 88.0168C14.6269 13.0197 14.4347 19.2472 16.8232 16.8585C19.1002 14.5815 16.8218 14.7129 54.4545 14.69L87.9743 14.6695V36.6737ZM112.179 34.62L121.564 44.0084H112.104H102.644V34.62C102.644 29.4563 102.677 25.2315 102.719 25.2315C102.76 25.2315 107.017 29.4563 112.179 34.62Z" fill="#2F3952"/>
</svg>
