<svg width="1093" height="347" viewBox="0 0 1093 347" fill="none" xmlns="http://www.w3.org/2000/svg">
<path fill-rule="evenodd" clip-rule="evenodd" d="M429.532 42.1794C429.384 42.4186 429.234 42.6608 429.081 42.9059C428.272 44.2049 427.414 45.5843 426.631 47.0297C426.273 47.6902 425.99 48.2587 425.781 48.7278C426.117 49.2852 426.602 49.9759 427.227 50.755C428.839 52.7654 430.611 54.4162 431.199 54.8646L437.633 59.7659L424.116 78.3095L424.06 78.342C426.48 82.0297 427.017 86.0926 426.485 89.6576C425.931 93.3663 424.269 96.4888 422.688 98.5842C421.39 100.808 419.266 103.456 417.486 105.588C415.311 108.194 412.838 110.968 410.786 113.208C406.951 118.039 401.715 120.506 396.42 121.763C391.137 123.018 385.201 123.213 379.321 123.115C375.359 123.049 371.367 122.859 367.298 122.666C358.596 122.254 349.543 121.825 339.686 122.546C272.906 127.436 242.732 180.776 236.005 192.668C235.791 193.046 235.601 193.383 235.433 193.675C235.268 193.963 235.079 194.29 234.866 194.656C228.555 205.534 204.527 260.294 221.71 327.878C222.834 332.299 218.789 332.33 214.368 333.455C209.946 334.579 204.655 326.753 203.531 322.331C184.708 248.294 213.656 198.313 220.519 186.464C220.734 186.093 220.928 185.759 221.097 185.463C221.27 185.161 221.474 184.799 221.71 184.381C228.609 172.13 262.687 111.618 338.48 106.069C349.347 105.273 360.182 105.78 369.298 106.206C373.064 106.382 376.537 106.544 379.597 106.596C385.17 106.689 389.407 106.448 392.602 105.689C395.666 104.961 397.095 103.921 397.911 102.852L398.139 102.554L398.393 102.277C400.385 100.11 402.772 97.4333 404.803 95C405.821 93.7808 406.704 92.677 407.386 91.7614C407.726 91.3051 407.988 90.9328 408.179 90.6439C408.352 90.3831 408.417 90.2648 408.417 90.2648L408.843 89.418L409.463 88.6809C409.521 88.6118 409.698 88.3716 409.87 88.02C410.021 87.7115 410.1 87.4532 410.134 87.2786C410.121 87.2655 410.107 87.2514 410.091 87.2362C408.235 85.4685 406.445 83.1239 405.716 80.115C404.924 76.8435 405.641 73.8597 406.962 71.5548C408.157 69.4702 409.782 68.0225 410.958 67.1139C411.563 66.646 412.177 66.2254 412.746 65.8597L415.341 62.2993C415 61.902 414.664 61.4984 414.338 61.0921C413.185 59.6536 411.969 57.9548 411.002 56.1519C410.135 54.5352 408.969 51.9363 408.969 48.9295C408.969 46.6572 409.647 44.604 410.151 43.2971C410.716 41.8356 411.43 40.4023 412.105 39.158C413.155 37.2202 414.397 35.2279 415.223 33.9018C415.433 33.5657 415.615 33.2725 415.762 33.0337L416.016 32.6193L416.316 32.2376C417.898 30.2288 421.21 26.7282 426.416 25.6499C431.889 24.5162 437.203 26.4614 441.877 30.5654L500.174 62.1422L500.842 62.7146C504.453 65.8092 505.908 70.7952 506.196 74.7927C506.519 79.2815 505.576 84.6024 502.335 89.4535C497.146 97.2178 488.662 96.1682 484.764 95.2316C484.144 95.0827 483.537 94.9141 482.956 94.7387L479.597 100.441C479.57 100.547 479.53 100.72 479.482 100.978C479.411 101.361 479.346 101.773 479.257 102.343L479.256 102.353C479.175 102.87 479.07 103.548 478.938 104.224C478.73 105.29 478.234 107.74 476.703 109.91C475.821 111.159 474.46 112.521 472.472 113.389C470.465 114.265 468.453 114.359 466.739 114.087C465.9 113.954 465.329 113.883 464.834 113.871C464.677 113.867 464.554 113.87 464.461 113.876C464.37 114.04 464.24 114.313 464.099 114.737L456.262 112.124C464.097 114.743 464.099 114.737 464.099 114.737L463.896 115.342C463.768 115.724 463.584 116.272 463.36 116.938C462.911 118.271 462.299 120.082 461.648 121.993C460.517 125.309 459.166 129.222 458.381 131.289C458.17 132.598 458.688 134.949 463.081 139.283C466.198 142.357 469.804 145.072 473.716 148.017C475.7 149.511 477.763 151.063 479.88 152.753C522.437 186.697 535.772 231.931 535.772 259.579C535.772 275.405 532.502 293.02 529.357 306.389C527.769 313.136 526.183 318.928 524.99 323.041C524.394 325.099 523.895 326.741 523.542 327.878C523.365 328.446 523.225 328.888 523.128 329.193C523.079 329.345 523.041 329.463 523.015 329.546L522.983 329.642L518.672 327.878C518.672 327.878 522.97 329.684 515.12 327.111L518.672 327.878C517.251 332.213 513.457 330.967 509.122 329.546C504.787 328.124 505.849 328.872 507.27 324.537L507.296 324.457C507.317 324.394 507.348 324.297 507.39 324.165C507.424 324.06 507.464 323.933 507.511 323.785C507.581 323.563 507.666 323.294 507.763 322.98C508.088 321.933 508.557 320.391 509.122 318.441C510.253 314.538 511.764 309.024 513.274 302.605C516.324 289.643 519.25 273.492 519.25 259.579C519.25 236.423 507.804 196.159 469.578 165.669C468.231 164.594 466.624 163.382 464.889 162.072C460.544 158.793 455.391 154.904 451.479 151.045C446.055 145.695 439.652 137.275 442.488 126.711L442.615 126.238L442.797 125.784C443.316 124.485 444.682 120.555 446.01 116.66C446.653 114.776 447.257 112.986 447.702 111.666C447.924 111.007 448.106 110.466 448.232 110.09L448.424 109.514M448.427 109.505C450.404 103.581 454.256 99.7256 459.253 98.1484C460.661 97.704 462.053 97.4827 463.349 97.3952C463.603 96.1535 464.072 94.3171 465.06 92.5694L465.096 92.5055L472.86 81.2257H477.135C478.802 81.2257 480.85 81.0516 481.41 81.2257C482.149 81.4552 485.082 81.0029 485.686 81.2257C487.084 81.7425 489.961 81.2257 489.961 81.2257C489.961 81.2257 490.036 77.9926 489.961 76.9507C489.94 76.6584 489.658 75.4296 489.614 75.2116C489.614 75.2116 442.736 49.9615 437.445 47.0252L431.359 43.331C430.587 42.596 430.024 42.2149 429.682 42.0232C429.634 42.0702 429.584 42.1222 429.532 42.1794M477.822 92.9653C477.822 92.9653 477.855 92.9717 477.93 92.9941C477.861 92.9783 477.822 92.9653 477.822 92.9653Z" fill="#2F3952"/>
<path d="M124.261 305.845L109.48 319.791C113.506 322.952 135.751 340.223 142.34 342.79C150.024 345.785 159.514 347.466 169.868 345.051C178.023 343.148 185.994 338.873 193.594 331.818C197.947 334.499 204.146 337.731 211.595 339.931C219.265 342.196 228.496 343.433 238.424 341.632C246.297 340.205 254.202 336.939 261.797 331.312C262.124 331.518 262.461 331.728 262.808 331.941C267.475 334.8 274.202 338.324 282.199 340.707C290.209 343.092 299.83 344.429 310.006 342.497C317.973 340.984 325.833 337.55 333.188 331.677L333.685 332.005C338.253 335.003 344.866 338.719 352.756 341.237C360.665 343.76 370.229 345.193 380.366 343.132C388.282 341.523 396.009 337.891 403.19 331.769L403.628 332.052C408.262 335.033 414.95 338.732 422.842 341.24C430.74 343.75 440.293 345.203 450.308 343.123C457.887 341.55 465.197 338.062 471.883 332.256C476.183 335.365 482.344 339.147 489.79 341.741C497.528 344.437 506.971 345.952 517.144 343.77C525.046 342.075 532.789 338.276 540.108 331.949C544.401 334.857 550.566 338.405 557.993 340.826C565.616 343.312 574.867 344.7 584.802 342.695C592.421 341.158 602.533 335.346 609.663 329.594C612.789 327.073 621.522 321.146 623.493 322.476C620.54 320.483 617.951 318.47 616.094 316.948C615.171 316.191 614.442 315.566 613.954 315.139C613.71 314.926 613.527 314.764 613.411 314.659L613.288 314.549L613.265 314.527L609.663 303.53L599.673 314.969C592.848 322.197 586.352 325.285 580.781 326.409C575.114 327.553 569.507 326.842 564.254 325.13C558.965 323.405 554.34 320.758 550.967 318.453C549.304 317.316 548.002 316.301 547.139 315.591C546.709 315.237 546.392 314.962 546.197 314.79C546.1 314.704 546.033 314.644 545.999 314.612L545.988 314.603L545.972 314.587L538.748 307.783L532.162 315.135C525.092 323.028 518.45 326.34 512.882 327.534C507.239 328.745 501.673 327.998 496.428 326.171C491.133 324.326 486.494 321.486 483.096 318.994C481.423 317.767 480.113 316.671 479.242 315.902C478.808 315.519 478.488 315.221 478.29 315.033C478.191 314.939 478.123 314.873 478.088 314.838L478.079 314.83L478.07 314.82L478.059 314.809L470.593 307.247L463.824 315.362C457.744 322.653 451.615 325.731 446.176 326.861C440.56 328.027 434.687 327.317 428.963 325.498C423.234 323.678 418.105 320.885 414.328 318.456C412.464 317.257 410.989 316.185 410.001 315.431C409.509 315.055 409.141 314.761 408.911 314.573C408.795 314.479 408.715 314.412 408.671 314.374L408.648 314.356L408.639 314.347L408.632 314.341L401.391 308.082L395.086 315.146C388.493 322.534 382.01 325.695 376.316 326.852C370.486 328.038 364.554 327.306 358.899 325.502C353.224 323.691 348.205 320.915 344.531 318.503C342.717 317.312 341.288 316.249 340.336 315.502C339.861 315.129 339.508 314.839 339.288 314.654C339.178 314.562 339.102 314.497 339.061 314.461L339.045 314.447L339.035 314.438L339.026 314.43L332.022 308.181L325.575 314.934C318.885 321.941 312.22 325.026 306.211 326.167C300.064 327.334 293.839 326.605 287.976 324.858C282.1 323.108 276.927 320.434 273.163 318.128C271.301 316.987 269.837 315.969 268.861 315.255C268.374 314.899 268.013 314.622 267.788 314.445C267.676 314.357 267.598 314.295 267.556 314.261L267.54 314.248L267.529 314.24L267.52 314.232L260.898 308.719L254.637 314.6C247.573 321.236 240.787 324.185 234.794 325.272C228.707 326.376 222.767 325.676 217.327 324.07C211.86 322.455 207.136 319.99 203.731 317.87C202.048 316.822 200.735 315.888 199.869 315.237C199.437 314.913 199.119 314.662 198.925 314.505L198.73 314.345L198.705 314.324L191.344 307.983L185.079 315.262C177.533 324.029 170.708 327.622 165.256 328.893C159.808 330.164 154.573 329.387 149.648 327.468C144.637 325.514 140.261 322.487 137.04 319.791C135.458 318.468 134.225 317.284 133.406 316.452C132.998 316.037 132.697 315.715 132.512 315.511C132.419 315.41 132.356 315.338 132.323 315.301L132.299 315.274L124.261 305.845Z" fill="#2F3952"/>
<path fill-rule="evenodd" clip-rule="evenodd" d="M333.893 190.54L333.887 190.561L331.676 198.017C331.702 199.309 331.947 200.793 332.585 202.434C335.02 208.702 344.495 220.201 379.037 230.429C381.208 231.072 383.02 232.578 384.049 234.594C385.079 236.611 385.235 238.962 384.482 241.097L376.692 238.35C384.482 241.097 384.482 241.097 384.482 241.097L384.206 241.882C384.025 242.397 383.758 243.156 383.417 244.13C382.734 246.078 381.752 248.884 380.558 252.314C378.17 259.175 374.936 268.526 371.549 278.492C364.713 298.601 357.436 320.685 355.06 330.189C353.953 334.615 349.468 337.306 345.042 336.2C340.616 335.093 337.925 330.608 339.032 326.182C341.612 315.861 349.158 293.027 355.906 273.174C359.31 263.16 362.558 253.769 364.955 246.883C365.354 245.735 365.731 244.656 366.08 243.655C345.678 236.752 332.747 228.807 325.005 220.52L292.39 330.534C291.094 334.908 286.497 337.402 282.122 336.106C277.748 334.809 275.254 330.212 276.55 325.838L315.27 195.23C315.408 193.731 315.656 192.345 315.964 191.095C316.5 188.918 317.212 187.155 317.82 185.889C318.024 185.464 318.218 185.091 318.393 184.773C322.925 171.281 334.235 165.191 345.56 163.249C356.907 161.303 369.398 163.175 379.097 166.127C396.392 171.391 408.156 178.728 414.543 187.765C421.091 197.031 421.328 207.178 417.39 215.838L383.499 336.613C382.266 341.006 373.224 337.846 368.831 336.613C364.438 335.38 366.359 336.542 367.592 332.149L397.68 224.928C396.716 224.909 395.75 224.864 394.791 224.799C386.752 224.256 377.269 222.151 368.831 219.397C360.609 216.713 352.236 213.045 347.076 208.827C344.842 207 341.045 203.358 340.872 198.019C340.659 191.463 345.681 187.872 349.116 186.262C353.247 184.326 358.165 186.105 360.102 190.236C361.255 192.696 361.09 195.435 359.896 197.658C363.078 199.569 367.992 201.743 373.958 203.691C381.484 206.148 389.586 207.888 395.905 208.315C399.098 208.531 401.372 208.377 402.737 208.066C403.993 204.682 403.741 201.108 401.051 197.301C397.677 192.527 389.921 186.691 374.286 181.933C366.111 179.445 356.345 178.162 348.353 179.533C340.624 180.858 335.793 184.299 333.893 190.54ZM403.533 207.819C403.533 207.819 403.507 207.837 403.438 207.864C403.496 207.831 403.533 207.819 403.533 207.819ZM356.717 195.254C356.717 195.254 356.758 195.294 356.812 195.375C356.739 195.295 356.717 195.254 356.717 195.254Z" fill="#2F3952"/>
<path fill-rule="evenodd" clip-rule="evenodd" d="M465.061 0.293398C467.44 -0.358075 469.985 0.0876023 472.002 1.50855L509.175 27.7078C511.379 29.2609 512.686 31.7915 512.677 34.4874C512.668 37.1833 511.344 39.7052 509.13 41.2437L486.207 57.1742C483.516 59.0443 479.929 70.112 477.135 68.4011L438.659 47.0257C435.114 44.8549 445.505 33.7178 447.209 29.9255L459.708 4.87522C460.719 2.62533 462.682 0.94487 465.061 0.293398ZM468.585 17.1003L455.759 38.4756L477.135 47.0257L494.235 34.2005L468.585 17.1003Z" fill="#2F3952"/>
<path d="M153.595 195.867C153.595 205.101 151.03 213.001 145.899 219.568C140.769 225.929 133.587 230.956 124.353 234.65C148.157 242.448 160.058 257.12 160.058 278.666C160.058 298.981 152.466 314.064 137.281 323.913C122.301 333.558 100.652 338.38 72.3341 338.38C68.8457 338.38 64.7416 338.278 60.0219 338.072C55.3022 337.867 50.3774 337.457 45.2473 336.841C40.3224 336.226 35.3975 335.405 30.4727 334.379C25.5478 333.558 21.0333 332.327 16.9293 330.685C5.64309 326.376 0 318.886 0 308.215V164.471C0 160.161 1.12862 156.878 3.38585 154.621C5.84829 152.158 9.13154 150.209 13.2356 148.773C20.2125 146.31 28.9336 144.566 39.399 143.54C49.8644 142.309 60.6375 141.693 71.7185 141.693C97.9845 141.693 118.197 146.105 132.356 154.929C146.515 163.752 153.595 177.398 153.595 195.867ZM104.961 276.204C104.961 263.686 96.5481 257.428 79.7214 257.428H52.3268V294.98C55.1997 295.801 58.8933 296.416 63.4078 296.827C67.9222 297.032 72.2315 297.134 76.3356 297.134C84.5437 297.134 91.3154 295.493 96.6507 292.21C102.191 288.721 104.961 283.386 104.961 276.204ZM52.3268 219.875H74.7966C83.6203 219.875 89.9816 218.234 93.8804 214.951C97.9845 211.667 100.037 206.845 100.037 200.484C100.037 194.943 97.6767 190.531 92.957 187.248C88.4426 183.965 81.5683 182.323 72.3341 182.323C69.2561 182.323 65.665 182.426 61.5609 182.631C57.6621 182.836 54.584 183.144 52.3268 183.554V219.875Z" fill="#2F3952"/>
<path d="M761.238 195.867C761.238 205.101 758.673 213.001 753.543 219.568C748.413 225.929 741.231 230.956 731.997 234.65C755.801 242.448 767.702 257.12 767.702 278.666C767.702 298.981 760.11 314.064 744.925 323.913C729.945 333.558 708.296 338.38 679.978 338.38C676.49 338.38 672.386 338.278 667.666 338.072C662.946 337.867 658.021 337.457 652.891 336.841C647.966 336.226 643.041 335.405 638.117 334.379C633.192 333.558 628.677 332.327 624.573 330.685C613.287 326.376 607.644 318.886 607.644 308.215V164.471C607.644 160.161 608.773 156.878 611.03 154.621C613.492 152.158 616.775 150.209 620.88 148.773C627.856 146.31 636.578 144.566 647.043 143.54C657.508 142.309 668.281 141.693 679.362 141.693C705.628 141.693 725.841 146.105 740 154.929C754.159 163.752 761.238 177.398 761.238 195.867ZM712.605 276.204C712.605 263.686 704.192 257.428 687.365 257.428H659.971V294.98C662.844 295.801 666.537 296.416 671.052 296.827C675.566 297.032 679.875 297.134 683.98 297.134C692.188 297.134 698.959 295.493 704.295 292.21C709.835 288.721 712.605 283.386 712.605 276.204ZM659.971 219.875H682.44C691.264 219.875 697.626 218.234 701.524 214.951C705.628 211.667 707.68 206.845 707.68 200.484C707.68 194.943 705.321 190.531 700.601 187.248C696.086 183.965 689.212 182.323 679.978 182.323C676.9 182.323 673.309 182.426 669.205 182.631C665.306 182.836 662.228 183.144 659.971 183.554V219.875Z" fill="#2F3952"/>
<path d="M826.844 334.379C818.02 334.379 811.044 331.814 805.913 326.684C800.783 321.554 798.218 314.577 798.218 305.753V146.31C800.681 145.9 804.272 145.387 808.992 144.771C813.711 143.95 818.431 143.54 823.151 143.54C833.411 143.54 840.798 145.284 845.312 148.773C849.827 152.261 852.084 159.033 852.084 169.088V290.978H922.571C924.008 293.236 925.342 296.211 926.573 299.905C927.804 303.598 928.42 307.6 928.42 311.909C928.42 319.502 926.778 325.145 923.495 328.838C920.212 332.532 915.697 334.379 909.951 334.379H826.844Z" fill="#2F3952"/>
<path d="M993.961 279.282C996.833 286.669 1001.66 291.902 1008.43 294.98C1015.2 297.853 1022.79 299.289 1031.2 299.289C1039.82 299.289 1048.03 298.263 1055.83 296.211C1063.63 293.954 1069.89 291.389 1074.61 288.516C1077.89 290.568 1080.66 293.441 1082.92 297.134C1085.17 300.828 1086.3 304.727 1086.3 308.831C1086.3 313.961 1084.87 318.373 1081.99 322.067C1079.12 325.76 1075.02 328.838 1069.68 331.301C1064.55 333.763 1058.39 335.507 1051.21 336.533C1044.03 337.765 1036.13 338.38 1027.51 338.38C1015.4 338.38 1004.12 336.739 993.653 333.455C983.393 329.967 974.466 324.837 966.874 318.065C959.281 311.293 953.33 302.778 949.021 292.517C944.712 282.257 942.557 270.253 942.557 256.504C942.557 242.961 944.712 231.367 949.021 221.722C953.536 211.872 959.384 203.87 966.566 197.713C973.953 191.352 982.264 186.735 991.498 183.862C1000.73 180.784 1010.17 179.245 1019.82 179.245C1030.69 179.245 1040.54 180.887 1049.37 184.17C1058.39 187.453 1066.09 191.968 1072.45 197.713C1079.02 203.459 1084.04 210.333 1087.53 218.336C1091.02 226.339 1092.77 235.06 1092.77 244.5C1092.77 251.477 1090.82 256.812 1086.92 260.506C1083.02 264.199 1077.58 266.559 1070.6 267.585L993.961 279.282ZM1020.12 217.413C1012.33 217.413 1005.76 219.773 1000.42 224.492C995.294 229.212 992.216 235.881 991.19 244.5L1043.52 235.881C1043.31 233.829 1042.7 231.777 1041.67 229.725C1040.64 227.468 1039.21 225.416 1037.36 223.569C1035.51 221.722 1033.15 220.286 1030.28 219.26C1027.41 218.029 1024.02 217.413 1020.12 217.413Z" fill="#2F3952"/>
</svg>
