<svg width="34" height="35" viewBox="0 0 34 35" fill="none" xmlns="http://www.w3.org/2000/svg">
<line x1="3" y1="-3" x2="15.6053" y2="-3" transform="matrix(-0.711206 -0.702984 0.711206 -0.702984 34 32)" stroke="#2F3952" stroke-width="6" stroke-linecap="round"/>
<path d="M12.8653 0.000164032C19.9706 0.000164032 25.7306 5.69358 25.7306 12.7168C25.7306 19.7399 19.9706 25.4333 12.8653 25.4333C5.76 25.4333 0 19.7399 0 12.7168C0 5.69358 5.76 0.000164032 12.8653 0.000164032ZM12.8653 22.2542C18.1943 22.2542 22.5143 17.9841 22.5143 12.7168C22.5143 7.44937 18.1943 3.17931 12.8653 3.17931C7.53633 3.17931 3.21633 7.44937 3.21633 12.7168C3.21633 17.9841 7.53633 22.2542 12.8653 22.2542Z" fill="#2F3952"/>
</svg>
