<svg width="613" height="790" viewBox="0 0 613 790" fill="none" xmlns="http://www.w3.org/2000/svg">
<path d="M234.204 14.0137L234.205 14.0136C235.208 13.7182 237.531 13.1542 239.362 12.762C241.198 12.3695 244.977 11.5556 247.761 10.9543C256.989 8.96058 271.53 7.04433 288.929 5.53331C292.158 5.25286 302.766 5.29858 313.653 5.52673C324.534 5.75474 335.622 6.1633 339.801 6.60051C342.429 6.87553 346.732 7.45491 349.357 7.88669C351.992 8.32096 356.801 9.09964 360.045 9.61791C365.664 10.5156 379.136 13.4145 386.136 15.2332C395.854 17.7575 417.791 25.4212 425.53 28.9943L425.74 28.5403L425.531 28.9943C426.391 29.3912 427.218 29.7534 427.861 30.0178C428.181 30.1498 428.46 30.259 428.675 30.3363C428.782 30.3747 428.878 30.4072 428.959 30.4308C429.007 30.4448 429.085 30.467 429.167 30.4767C429.172 30.4783 429.178 30.4804 429.185 30.483C429.229 30.4982 429.293 30.5231 429.381 30.5591C429.554 30.6306 429.798 30.7372 430.105 30.8755C430.718 31.1516 431.567 31.5473 432.575 32.0249C434.59 32.9796 437.231 34.2574 439.869 35.5503C442.507 36.8432 445.141 38.1503 447.143 39.1636C448.144 39.6705 448.984 40.1027 449.588 40.4226C449.89 40.5828 450.129 40.713 450.298 40.8094C450.382 40.8578 450.445 40.8953 450.487 40.9222C450.501 40.9307 450.51 40.9371 450.517 40.9413C450.613 41.0362 450.755 41.1377 450.891 41.2291C451.056 41.3403 451.265 41.4707 451.502 41.6113C451.976 41.893 452.575 42.2245 453.187 42.5395C464.969 48.6019 484.776 61.8278 496.426 71.4146L497.026 71.9085C499.141 73.6494 501.314 75.4376 502.046 76.0412L502.364 75.6554L502.046 76.0413C511.144 83.5381 526.977 99.3342 536.597 110.516C544.045 119.172 558.529 138.783 562.753 145.926L563.184 145.671L562.753 145.926C563.836 147.756 565.716 150.917 566.932 152.951C570.411 158.772 571.71 161.205 576.371 170.641C579.002 175.966 581.782 181.886 583.901 186.6C584.961 188.958 585.854 191.011 586.481 192.536C586.795 193.299 587.039 193.925 587.204 194.389C587.287 194.621 587.348 194.806 587.387 194.945C587.431 195.104 587.432 195.148 587.432 195.129C587.429 195.315 587.493 195.58 587.564 195.834C587.642 196.113 587.754 196.46 587.89 196.849C588.163 197.627 588.539 198.594 588.953 199.564C591.112 204.616 591.271 205.071 594.377 215.151C596.921 223.408 600.024 235.216 600.934 240.092C601.122 241.104 601.951 245.402 602.775 249.642C606.052 266.514 608.234 297.975 607.241 314.003C605.704 338.804 603.119 361.689 600.783 371.267C600.39 372.882 599.656 376.337 599.15 378.949C598.647 381.553 597.878 385.155 597.442 386.949C597.004 388.754 596.338 391.544 595.961 393.15C593.8 402.363 589.454 417.629 586.433 426.615L586.906 426.775L586.433 426.616C585.625 429.018 584.645 431.968 584.254 433.172L584.73 433.326L584.254 433.172C583.1 436.73 576.473 454.838 575.688 456.584L576.144 456.789L575.688 456.584C575.283 457.486 574.642 458.963 574.265 459.866C567.155 476.879 566.236 478.942 559.14 493.81C556.082 500.219 544.051 522.933 540.715 528.598C539.657 530.395 537.59 533.987 536.123 536.581C534.656 539.172 532.84 542.135 532.091 543.166C531.702 543.701 531.345 544.23 531.084 544.653C530.954 544.863 530.843 545.053 530.763 545.208C530.724 545.285 530.688 545.36 530.66 545.429C530.642 545.474 530.607 545.565 530.598 545.669C530.595 545.679 530.588 545.699 530.575 545.731C530.566 545.754 530.554 545.781 530.541 545.81C530.513 545.872 530.477 545.948 530.431 546.039C530.295 546.307 530.092 546.674 529.824 547.134C529.289 548.053 528.511 549.32 527.541 550.857C525.601 553.93 522.903 558.071 519.865 562.646C513.788 571.798 506.361 582.68 500.943 590.231C492.814 601.558 490.119 605.151 482.878 614.313C471.396 628.841 457.669 645.448 452.389 651.203C451.609 652.053 448.598 655.448 445.699 658.744C442.801 662.039 438.602 666.698 436.37 669.094C434.133 671.495 431.105 674.758 429.64 676.344C411.395 696.108 374.605 731.128 353.355 748.959C341.388 759.001 331.314 767.197 323.72 773.093C319.923 776.042 316.749 778.412 314.271 780.149C311.777 781.897 310.026 782.976 309.058 783.374C307.387 784.06 304.226 784.432 299.889 784.394C295.706 784.357 292.995 784.054 290.221 782.902C287.429 781.742 284.538 779.709 280.03 776.128C248.006 750.69 201.68 704.923 165.954 663.425C157.892 654.059 144.735 638.009 139.903 631.643C136.229 626.802 135.851 626.312 133.812 623.754L133.421 624.066L133.812 623.754C132.805 622.491 128.859 617.165 125.041 611.914C121.226 606.666 117.455 601.486 116.663 600.402C114.28 597.142 95.6653 568.922 93.7471 565.662C93.2488 564.815 92.7082 563.951 92.2379 563.241C91.7767 562.544 91.3595 561.959 91.1141 561.696L90.7488 562.038L91.1138 561.696C91.0377 561.615 90.8849 561.413 90.6614 561.086C90.4447 560.769 90.1783 560.36 89.8797 559.887C89.2828 558.94 88.5634 557.745 87.8668 556.531L87.4331 556.78L87.8667 556.531C86.4644 554.088 83.6537 549.32 81.6186 545.934C80.6033 544.244 79.6816 542.669 79.015 541.492C78.6814 540.903 78.4134 540.417 78.2299 540.068C78.1377 539.893 78.0697 539.757 78.0258 539.662C78.0087 539.625 77.9972 539.599 77.99 539.581C77.9795 539.516 77.9613 539.465 77.9545 539.446L77.9534 539.443C77.9363 539.394 77.9141 539.341 77.8903 539.287C77.8421 539.178 77.774 539.038 77.6908 538.874C77.5235 538.545 77.2835 538.097 76.9899 537.566C76.4021 536.501 75.5919 535.086 74.7008 533.576C73.8131 532.072 73.0074 530.67 72.4248 529.624C72.1332 529.1 71.8991 528.669 71.739 528.359C71.6585 528.204 71.5994 528.084 71.5615 528.001C71.5482 527.972 71.5391 527.951 71.5331 527.936C71.5277 527.905 71.5213 527.883 71.5187 527.874L71.5182 527.872C71.5097 527.842 71.4996 527.813 71.4907 527.789C71.4724 527.741 71.4483 527.684 71.4212 527.623C71.3664 527.501 71.2879 527.337 71.1901 527.139C70.9938 526.743 70.7112 526.193 70.3643 525.532C69.6699 524.21 68.7124 522.432 67.6593 520.516C65.5623 516.702 60.7705 507.135 57.0117 499.259C50.521 485.656 48.8275 481.933 45.6458 474.27C44.8889 472.446 43.8111 469.875 43.2517 468.554L42.7914 468.749L43.2517 468.554C40.6415 462.396 40.118 461.112 38.668 457.33C37.8166 455.108 36.3881 451.138 35.4961 448.512L35.0227 448.672L35.4961 448.511C34.6012 445.878 32.5516 439.914 30.9422 435.258L30.4697 435.421L30.9422 435.258C23.3168 413.2 16.1605 384.69 13.3416 365.153C12.7594 361.117 12.0089 355.998 11.6748 353.777L11.1804 353.851L11.6748 353.777C11.0168 349.407 10.1891 342.359 8.92227 330.33C8.4015 325.386 8.32791 311.242 8.55394 297.339C8.66682 290.396 8.85418 283.525 9.09665 277.912C9.33974 272.284 9.63702 267.956 9.96431 266.073C10.4881 263.059 11.3206 257.964 11.8151 254.749C12.3085 251.54 13.0378 247.448 13.434 245.658C13.8349 243.851 14.5727 240.402 15.0749 237.994L14.5855 237.892L15.0749 237.994C16.151 232.833 19.364 220.29 20.6632 216.177C23.4162 207.463 29.3334 191.369 32.2124 184.762L31.754 184.562L32.2124 184.762C32.6052 183.86 33.235 182.387 33.6137 181.485L33.6138 181.485C35.6759 176.568 46.7116 155.801 50.7815 149.183C66.8054 123.129 80.8173 106.088 103.913 84.5713C117.19 72.2036 132.844 60.1135 146.128 51.9637C147.772 50.9559 151.522 48.6322 154.46 46.8007C155.926 45.8878 157.307 45.0597 158.351 44.4613C158.874 44.1618 159.308 43.9222 159.624 43.7588C159.783 43.6767 159.906 43.6172 159.992 43.5795C160.009 43.5722 160.023 43.5662 160.036 43.5613C160.046 43.5572 160.054 43.5539 160.061 43.5513C160.161 43.5411 160.252 43.5114 160.305 43.4932C160.394 43.4632 160.496 43.4219 160.605 43.374C160.825 43.2774 161.104 43.1408 161.42 42.9764C162.053 42.6467 162.858 42.1933 163.685 41.6952C167.89 39.1631 184.705 30.9747 190.009 28.8786C192.48 27.9025 196.011 26.4545 197.859 25.6601C203.814 23.1005 221.038 17.4467 229.362 15.3221L229.239 14.8376L229.363 15.322C230.998 14.9042 233.175 14.3159 234.204 14.0137ZM429.15 30.4715C429.151 30.4716 429.152 30.4718 429.152 30.4721C429.147 30.4707 429.145 30.4701 429.15 30.4715Z" fill="#FFE9A7" stroke="#2F3952"/>
<mask id="path-2-inside-1_308_78" fill="white">
<path fill-rule="evenodd" clip-rule="evenodd" d="M288.886 5.03518C271.48 6.54678 256.914 8.46516 247.655 10.4655C244.872 11.0669 241.092 11.8807 239.257 12.2731C237.422 12.6663 235.085 13.2333 234.064 13.534C233.042 13.8339 230.871 14.4205 229.239 14.8376C220.896 16.9667 203.647 22.6282 197.662 25.2007C195.82 25.9927 192.293 27.4388 189.826 28.4135C184.5 30.5183 167.659 38.7185 163.427 41.2669C161.788 42.2547 160.242 43.059 159.993 43.0548C159.743 43.0507 157.135 44.5457 154.196 46.3763C151.258 48.2077 147.509 50.5306 145.867 51.5375C132.55 59.7072 116.869 71.8186 103.573 84.2054C80.4446 105.752 66.4038 122.827 50.3556 148.921C46.2777 155.552 35.2281 176.343 33.1527 181.292C32.7749 182.192 32.1459 183.663 31.754 184.562C28.8665 191.189 22.9434 207.3 20.1864 216.027C18.8812 220.159 15.6642 232.718 14.5855 237.892C14.0835 240.299 13.3461 243.745 12.9458 245.55C12.5462 247.355 11.8149 251.46 11.3209 254.673C10.8269 257.885 9.99485 262.977 9.4717 265.987C8.13602 273.673 7.37576 320.42 8.42502 330.382C9.69177 342.411 10.5205 349.469 11.1804 353.851C11.5143 356.071 12.2646 361.189 12.8468 365.224C15.6708 384.798 22.8357 413.339 30.4697 435.421C32.0789 440.078 34.1282 446.041 35.0227 448.672C35.9164 451.304 37.3471 455.28 38.2011 457.509C39.6541 461.299 40.1801 462.589 42.7914 468.749C43.3501 470.068 44.4274 472.639 45.184 474.462C48.3707 482.136 50.0685 485.869 56.5604 499.474C60.3201 507.352 65.117 516.93 67.2211 520.757C69.3252 524.584 71.0447 527.859 71.0418 528.033C71.0389 528.208 72.4917 530.816 74.2702 533.83C76.0487 536.844 77.5012 539.474 77.4978 539.674C77.4945 539.874 79.1561 542.807 81.1901 546.192C83.224 549.576 86.0329 554.341 87.4331 556.78C88.8326 559.218 90.3249 561.585 90.7488 562.038C91.1728 562.491 92.3282 564.236 93.3161 565.915C95.2433 569.191 113.867 597.425 116.259 600.697C117.051 601.78 120.821 606.96 124.636 612.208C128.453 617.456 132.405 622.792 133.421 624.066C135.456 626.619 135.831 627.106 139.505 631.945C144.346 638.322 157.509 654.381 165.575 663.751C201.315 705.266 247.664 751.057 279.719 776.52C288.73 783.679 291.479 784.819 299.885 784.894C304.225 784.932 307.476 784.565 309.248 783.836C313.359 782.146 329.737 769.43 353.677 749.342C374.942 731.497 411.748 696.463 430.008 676.683C431.471 675.097 434.499 671.836 436.736 669.435C438.972 667.034 443.175 662.371 446.075 659.074C448.974 655.777 451.982 652.387 452.758 651.542C458.051 645.771 471.788 629.151 483.27 614.624C490.517 605.454 493.217 601.855 501.349 590.522C512.194 575.408 531.074 546.973 531.095 545.722C531.098 545.533 531.729 544.515 532.495 543.459C533.262 542.404 535.091 539.419 536.558 536.827C538.024 534.235 540.09 530.646 541.146 528.852C544.49 523.173 556.528 500.446 559.591 494.025C566.691 479.149 567.614 477.078 574.726 460.059C575.102 459.16 575.74 457.687 576.144 456.789C576.941 455.017 583.574 436.889 584.73 433.326C585.12 432.125 586.099 429.177 586.906 426.775C589.933 417.773 594.284 402.492 596.448 393.264C596.824 391.66 597.49 388.871 597.928 387.067C598.366 385.263 599.136 381.652 599.641 379.044C600.146 376.435 600.878 372.989 601.269 371.385C603.616 361.76 606.203 338.833 607.74 314.034C608.736 297.961 606.55 266.457 603.265 249.547C602.441 245.306 601.613 241.01 601.425 240.001C600.51 235.097 597.401 223.268 594.855 215.004C591.748 204.919 591.582 204.444 589.413 199.367C588.592 197.445 587.925 195.542 587.932 195.137C587.949 194.122 582.086 181.08 576.82 170.42C572.155 160.978 570.85 158.532 567.361 152.695C566.145 150.661 564.266 147.501 563.184 145.671C558.94 138.496 544.437 118.861 536.976 110.19C527.342 98.9915 511.488 83.1742 502.364 75.6554C501.562 74.9943 499.033 72.9128 496.743 71.0286C485.07 61.4222 465.233 48.1756 453.416 42.0949C452.207 41.473 451.055 40.7884 450.855 40.5728C450.411 40.0948 429.793 29.9907 429.242 29.9815C429.026 29.9779 427.45 29.3294 425.74 28.5403C417.969 24.9529 396.003 17.2798 386.261 14.7493C379.25 12.9275 365.763 10.0249 360.123 9.12418C356.881 8.60599 352.072 7.82744 349.438 7.39334C346.803 6.95997 342.49 6.37927 339.853 6.10323C331.445 5.22361 295.411 4.46849 288.886 5.03518ZM289.284 14.7083C272.284 16.1834 258.057 18.0555 249.013 20.0077C246.294 20.5946 242.603 21.3888 240.81 21.7718C239.017 22.1555 236.735 22.7089 235.737 23.0023C234.74 23.295 232.619 23.8676 231.025 24.2746C222.876 26.3525 206.028 31.8778 200.182 34.3885C198.383 35.1614 194.938 36.5727 192.528 37.5241C187.326 39.5783 170.877 47.5813 166.744 50.0684C165.143 51.0326 163.633 51.8175 163.389 51.8134C163.146 51.8094 160.598 53.2685 157.727 55.0551C154.858 56.8425 151.197 59.1096 149.592 60.0922C136.585 68.0656 121.269 79.886 108.282 91.9753C85.6921 113.004 71.9781 129.669 56.3035 155.136C52.3205 161.608 41.5281 181.9 39.501 186.73C39.132 187.608 38.5176 189.043 38.1349 189.922C35.3146 196.389 29.5295 212.113 26.8367 220.63C25.5619 224.663 22.4199 236.921 21.3663 241.971C20.876 244.32 20.1559 247.683 19.7649 249.445C19.3746 251.207 18.6603 255.213 18.1778 258.348C17.6954 261.484 16.8827 266.453 16.3718 269.391C15.0673 276.893 14.3253 322.517 15.3503 332.24C16.5877 343.98 17.3973 350.868 18.0419 355.146C18.368 357.312 19.1009 362.307 19.6696 366.246C22.4283 385.349 29.4268 413.205 36.8836 434.757C38.4554 439.302 40.4571 445.122 41.3309 447.69C42.2039 450.259 43.6013 454.14 44.4355 456.315C45.8547 460.014 46.3685 461.273 48.9191 467.285C49.4649 468.573 50.5172 471.081 51.2562 472.861C54.3689 480.351 56.0272 483.994 62.3684 497.273C66.0407 504.961 70.7261 514.31 72.7814 518.044C74.8366 521.78 76.5162 524.976 76.5133 525.146C76.5105 525.316 77.9295 527.862 79.6667 530.804C81.4039 533.746 82.8226 536.312 82.8193 536.507C82.8161 536.702 84.4391 539.565 86.4258 542.868C88.4125 546.171 91.1561 550.822 92.5238 553.202C93.8907 555.583 95.3483 557.892 95.7625 558.334C96.1766 558.777 97.3051 560.48 98.2701 562.119C100.152 565.316 118.344 592.872 120.68 596.066C121.453 597.123 125.136 602.179 128.863 607.3C132.59 612.422 136.451 617.63 137.443 618.874C139.431 621.366 139.797 621.84 143.386 626.564C148.114 632.788 160.971 648.461 168.85 657.607C203.759 698.125 249.031 742.817 280.341 767.669C289.143 774.656 291.828 775.769 300.038 775.842C304.277 775.879 307.452 775.521 309.183 774.81C313.198 773.161 329.196 760.75 352.578 741.145C373.349 723.729 409.298 689.536 427.133 670.232C428.563 668.684 431.52 665.5 433.705 663.157C435.889 660.814 439.994 656.263 442.826 653.045C445.658 649.827 448.596 646.518 449.353 645.694C454.524 640.062 467.941 623.841 479.156 609.662C486.234 600.714 488.871 597.201 496.814 586.14C507.407 571.388 525.848 543.637 525.868 542.416C525.871 542.232 526.487 541.238 527.236 540.208C527.985 539.177 529.771 536.264 531.204 533.734C532.636 531.204 534.653 527.702 535.685 525.951C538.951 520.409 550.709 498.228 553.701 491.961C560.635 477.442 561.536 475.421 568.483 458.81C568.85 457.933 569.474 456.496 569.868 455.618C570.646 453.89 577.125 436.197 578.254 432.719C578.635 431.547 579.591 428.67 580.38 426.325C583.335 417.54 587.585 402.626 589.699 393.619C590.067 392.054 590.717 389.332 591.145 387.571C591.572 385.81 592.325 382.286 592.818 379.741C593.31 377.195 594.026 373.831 594.407 372.266C596.7 362.872 599.226 340.496 600.727 316.292C601.7 300.605 599.564 269.858 596.356 253.353C595.551 249.214 594.742 245.021 594.559 244.036C593.665 239.25 590.628 227.705 588.141 219.64C585.106 209.797 584.944 209.333 582.825 204.378C582.023 202.502 581.372 200.645 581.379 200.25C581.395 199.259 575.668 186.53 570.524 176.125C565.968 166.91 564.693 164.523 561.285 158.826C560.098 156.841 558.262 153.757 557.205 151.971C553.06 144.968 538.894 125.804 531.607 117.342C522.196 106.412 506.711 90.9739 497.799 83.6356C497.016 82.9903 494.545 80.9588 492.309 79.1198C480.907 69.7439 461.531 56.8151 449.989 50.8802C448.808 50.2733 447.683 49.6051 447.488 49.3947C447.054 48.9281 426.915 39.0663 426.377 39.0574C426.166 39.0538 424.627 38.4209 422.956 37.6508C415.367 34.1494 393.911 26.6602 384.396 24.1904C377.547 22.4123 364.374 19.5792 358.865 18.7C355.698 18.1942 351.002 17.4343 348.428 17.0106C345.855 16.5876 341.643 16.0208 339.067 15.7513C330.854 14.8927 295.658 14.1553 289.284 14.7083Z"/>
</mask>
<path fill-rule="evenodd" clip-rule="evenodd" d="M288.886 5.03518C271.48 6.54678 256.914 8.46516 247.655 10.4655C244.872 11.0669 241.092 11.8807 239.257 12.2731C237.422 12.6663 235.085 13.2333 234.064 13.534C233.042 13.8339 230.871 14.4205 229.239 14.8376C220.896 16.9667 203.647 22.6282 197.662 25.2007C195.82 25.9927 192.293 27.4388 189.826 28.4135C184.5 30.5183 167.659 38.7185 163.427 41.2669C161.788 42.2547 160.242 43.059 159.993 43.0548C159.743 43.0507 157.135 44.5457 154.196 46.3763C151.258 48.2077 147.509 50.5306 145.867 51.5375C132.55 59.7072 116.869 71.8186 103.573 84.2054C80.4446 105.752 66.4038 122.827 50.3556 148.921C46.2777 155.552 35.2281 176.343 33.1527 181.292C32.7749 182.192 32.1459 183.663 31.754 184.562C28.8665 191.189 22.9434 207.3 20.1864 216.027C18.8812 220.159 15.6642 232.718 14.5855 237.892C14.0835 240.299 13.3461 243.745 12.9458 245.55C12.5462 247.355 11.8149 251.46 11.3209 254.673C10.8269 257.885 9.99485 262.977 9.4717 265.987C8.13602 273.673 7.37576 320.42 8.42502 330.382C9.69177 342.411 10.5205 349.469 11.1804 353.851C11.5143 356.071 12.2646 361.189 12.8468 365.224C15.6708 384.798 22.8357 413.339 30.4697 435.421C32.0789 440.078 34.1282 446.041 35.0227 448.672C35.9164 451.304 37.3471 455.28 38.2011 457.509C39.6541 461.299 40.1801 462.589 42.7914 468.749C43.3501 470.068 44.4274 472.639 45.184 474.462C48.3707 482.136 50.0685 485.869 56.5604 499.474C60.3201 507.352 65.117 516.93 67.2211 520.757C69.3252 524.584 71.0447 527.859 71.0418 528.033C71.0389 528.208 72.4917 530.816 74.2702 533.83C76.0487 536.844 77.5012 539.474 77.4978 539.674C77.4945 539.874 79.1561 542.807 81.1901 546.192C83.224 549.576 86.0329 554.341 87.4331 556.78C88.8326 559.218 90.3249 561.585 90.7488 562.038C91.1728 562.491 92.3282 564.236 93.3161 565.915C95.2433 569.191 113.867 597.425 116.259 600.697C117.051 601.78 120.821 606.96 124.636 612.208C128.453 617.456 132.405 622.792 133.421 624.066C135.456 626.619 135.831 627.106 139.505 631.945C144.346 638.322 157.509 654.381 165.575 663.751C201.315 705.266 247.664 751.057 279.719 776.52C288.73 783.679 291.479 784.819 299.885 784.894C304.225 784.932 307.476 784.565 309.248 783.836C313.359 782.146 329.737 769.43 353.677 749.342C374.942 731.497 411.748 696.463 430.008 676.683C431.471 675.097 434.499 671.836 436.736 669.435C438.972 667.034 443.175 662.371 446.075 659.074C448.974 655.777 451.982 652.387 452.758 651.542C458.051 645.771 471.788 629.151 483.27 614.624C490.517 605.454 493.217 601.855 501.349 590.522C512.194 575.408 531.074 546.973 531.095 545.722C531.098 545.533 531.729 544.515 532.495 543.459C533.262 542.404 535.091 539.419 536.558 536.827C538.024 534.235 540.09 530.646 541.146 528.852C544.49 523.173 556.528 500.446 559.591 494.025C566.691 479.149 567.614 477.078 574.726 460.059C575.102 459.16 575.74 457.687 576.144 456.789C576.941 455.017 583.574 436.889 584.73 433.326C585.12 432.125 586.099 429.177 586.906 426.775C589.933 417.773 594.284 402.492 596.448 393.264C596.824 391.66 597.49 388.871 597.928 387.067C598.366 385.263 599.136 381.652 599.641 379.044C600.146 376.435 600.878 372.989 601.269 371.385C603.616 361.76 606.203 338.833 607.74 314.034C608.736 297.961 606.55 266.457 603.265 249.547C602.441 245.306 601.613 241.01 601.425 240.001C600.51 235.097 597.401 223.268 594.855 215.004C591.748 204.919 591.582 204.444 589.413 199.367C588.592 197.445 587.925 195.542 587.932 195.137C587.949 194.122 582.086 181.08 576.82 170.42C572.155 160.978 570.85 158.532 567.361 152.695C566.145 150.661 564.266 147.501 563.184 145.671C558.94 138.496 544.437 118.861 536.976 110.19C527.342 98.9915 511.488 83.1742 502.364 75.6554C501.562 74.9943 499.033 72.9128 496.743 71.0286C485.07 61.4222 465.233 48.1756 453.416 42.0949C452.207 41.473 451.055 40.7884 450.855 40.5728C450.411 40.0948 429.793 29.9907 429.242 29.9815C429.026 29.9779 427.45 29.3294 425.74 28.5403C417.969 24.9529 396.003 17.2798 386.261 14.7493C379.25 12.9275 365.763 10.0249 360.123 9.12418C356.881 8.60599 352.072 7.82744 349.438 7.39334C346.803 6.95997 342.49 6.37927 339.853 6.10323C331.445 5.22361 295.411 4.46849 288.886 5.03518ZM289.284 14.7083C272.284 16.1834 258.057 18.0555 249.013 20.0077C246.294 20.5946 242.603 21.3888 240.81 21.7718C239.017 22.1555 236.735 22.7089 235.737 23.0023C234.74 23.295 232.619 23.8676 231.025 24.2746C222.876 26.3525 206.028 31.8778 200.182 34.3885C198.383 35.1614 194.938 36.5727 192.528 37.5241C187.326 39.5783 170.877 47.5813 166.744 50.0684C165.143 51.0326 163.633 51.8175 163.389 51.8134C163.146 51.8094 160.598 53.2685 157.727 55.0551C154.858 56.8425 151.197 59.1096 149.592 60.0922C136.585 68.0656 121.269 79.886 108.282 91.9753C85.6921 113.004 71.9781 129.669 56.3035 155.136C52.3205 161.608 41.5281 181.9 39.501 186.73C39.132 187.608 38.5176 189.043 38.1349 189.922C35.3146 196.389 29.5295 212.113 26.8367 220.63C25.5619 224.663 22.4199 236.921 21.3663 241.971C20.876 244.32 20.1559 247.683 19.7649 249.445C19.3746 251.207 18.6603 255.213 18.1778 258.348C17.6954 261.484 16.8827 266.453 16.3718 269.391C15.0673 276.893 14.3253 322.517 15.3503 332.24C16.5877 343.98 17.3973 350.868 18.0419 355.146C18.368 357.312 19.1009 362.307 19.6696 366.246C22.4283 385.349 29.4268 413.205 36.8836 434.757C38.4554 439.302 40.4571 445.122 41.3309 447.69C42.2039 450.259 43.6013 454.14 44.4355 456.315C45.8547 460.014 46.3685 461.273 48.9191 467.285C49.4649 468.573 50.5172 471.081 51.2562 472.861C54.3689 480.351 56.0272 483.994 62.3684 497.273C66.0407 504.961 70.7261 514.31 72.7814 518.044C74.8366 521.78 76.5162 524.976 76.5133 525.146C76.5105 525.316 77.9295 527.862 79.6667 530.804C81.4039 533.746 82.8226 536.312 82.8193 536.507C82.8161 536.702 84.4391 539.565 86.4258 542.868C88.4125 546.171 91.1561 550.822 92.5238 553.202C93.8907 555.583 95.3483 557.892 95.7625 558.334C96.1766 558.777 97.3051 560.48 98.2701 562.119C100.152 565.316 118.344 592.872 120.68 596.066C121.453 597.123 125.136 602.179 128.863 607.3C132.59 612.422 136.451 617.63 137.443 618.874C139.431 621.366 139.797 621.84 143.386 626.564C148.114 632.788 160.971 648.461 168.85 657.607C203.759 698.125 249.031 742.817 280.341 767.669C289.143 774.656 291.828 775.769 300.038 775.842C304.277 775.879 307.452 775.521 309.183 774.81C313.198 773.161 329.196 760.75 352.578 741.145C373.349 723.729 409.298 689.536 427.133 670.232C428.563 668.684 431.52 665.5 433.705 663.157C435.889 660.814 439.994 656.263 442.826 653.045C445.658 649.827 448.596 646.518 449.353 645.694C454.524 640.062 467.941 623.841 479.156 609.662C486.234 600.714 488.871 597.201 496.814 586.14C507.407 571.388 525.848 543.637 525.868 542.416C525.871 542.232 526.487 541.238 527.236 540.208C527.985 539.177 529.771 536.264 531.204 533.734C532.636 531.204 534.653 527.702 535.685 525.951C538.951 520.409 550.709 498.228 553.701 491.961C560.635 477.442 561.536 475.421 568.483 458.81C568.85 457.933 569.474 456.496 569.868 455.618C570.646 453.89 577.125 436.197 578.254 432.719C578.635 431.547 579.591 428.67 580.38 426.325C583.335 417.54 587.585 402.626 589.699 393.619C590.067 392.054 590.717 389.332 591.145 387.571C591.572 385.81 592.325 382.286 592.818 379.741C593.31 377.195 594.026 373.831 594.407 372.266C596.7 362.872 599.226 340.496 600.727 316.292C601.7 300.605 599.564 269.858 596.356 253.353C595.551 249.214 594.742 245.021 594.559 244.036C593.665 239.25 590.628 227.705 588.141 219.64C585.106 209.797 584.944 209.333 582.825 204.378C582.023 202.502 581.372 200.645 581.379 200.25C581.395 199.259 575.668 186.53 570.524 176.125C565.968 166.91 564.693 164.523 561.285 158.826C560.098 156.841 558.262 153.757 557.205 151.971C553.06 144.968 538.894 125.804 531.607 117.342C522.196 106.412 506.711 90.9739 497.799 83.6356C497.016 82.9903 494.545 80.9588 492.309 79.1198C480.907 69.7439 461.531 56.8151 449.989 50.8802C448.808 50.2733 447.683 49.6051 447.488 49.3947C447.054 48.9281 426.915 39.0663 426.377 39.0574C426.166 39.0538 424.627 38.4209 422.956 37.6508C415.367 34.1494 393.911 26.6602 384.396 24.1904C377.547 22.4123 364.374 19.5792 358.865 18.7C355.698 18.1942 351.002 17.4343 348.428 17.0106C345.855 16.5876 341.643 16.0208 339.067 15.7513C330.854 14.8927 295.658 14.1553 289.284 14.7083Z" fill="#2F3952" stroke="#2F3952" stroke-width="2" mask="url(#path-2-inside-1_308_78)"/>
<path fill-rule="evenodd" clip-rule="evenodd" d="M364.876 211.473C364.738 211.697 364.597 211.923 364.455 212.153C363.7 213.368 362.898 214.659 362.166 216.012C361.832 216.63 361.568 217.162 361.373 217.601C361.687 218.123 362.139 218.769 362.723 219.499C364.229 221.38 365.883 222.925 366.433 223.345L372.441 227.932L359.818 245.286L359.766 245.316C362.025 248.767 362.527 252.57 362.03 255.906C361.514 259.377 359.961 262.299 358.485 264.26C357.273 266.342 355.289 268.82 353.627 270.815C351.595 273.254 349.287 275.85 347.37 277.946C343.789 282.467 338.899 284.776 333.955 285.953C329.022 287.127 323.478 287.31 317.987 287.218C314.288 287.156 310.559 286.979 306.76 286.798C298.633 286.412 290.18 286.01 280.975 286.686C218.614 291.262 190.436 341.181 184.155 352.31C183.955 352.664 183.777 352.979 183.621 353.252C183.467 353.522 183.289 353.828 183.091 354.171C177.197 364.351 154.76 415.599 170.805 478.848C171.855 482.986 168.078 483.016 163.949 484.068C159.82 485.12 154.879 477.795 153.83 473.657C136.252 404.369 163.285 357.594 169.693 346.504C169.894 346.157 170.075 345.844 170.233 345.567C170.395 345.285 170.585 344.946 170.805 344.554C177.248 333.089 209.071 276.459 279.848 271.265C289.996 270.52 300.114 270.994 308.628 271.393C312.145 271.558 315.387 271.71 318.245 271.758C323.45 271.845 327.406 271.619 330.389 270.909C333.25 270.228 334.585 269.254 335.347 268.255L335.56 267.975L335.797 267.716C337.657 265.688 339.886 263.183 341.783 260.906C342.734 259.765 343.558 258.732 344.195 257.875C344.513 257.448 344.758 257.1 344.936 256.829C345.097 256.585 345.158 256.474 345.158 256.474L345.556 255.682L346.134 254.992C346.189 254.927 346.355 254.703 346.515 254.374C346.656 254.085 346.73 253.843 346.762 253.68C346.749 253.668 346.736 253.654 346.721 253.64C344.988 251.986 343.316 249.791 342.636 246.976C341.896 243.914 342.566 241.121 343.799 238.964C344.915 237.013 346.433 235.659 347.531 234.808C348.096 234.37 348.67 233.977 349.201 233.635L351.624 230.302C351.305 229.931 350.992 229.553 350.688 229.173C349.61 227.826 348.475 226.237 347.572 224.549C346.762 223.036 345.674 220.604 345.674 217.79C345.674 215.664 346.306 213.742 346.777 212.519C347.304 211.151 347.972 209.81 348.602 208.645C349.582 206.832 350.742 204.967 351.514 203.726C351.709 203.412 351.88 203.137 352.017 202.914L352.254 202.526L352.535 202.169C354.012 200.289 357.105 197.013 361.966 196.004C367.077 194.943 372.039 196.763 376.404 200.604L430.843 230.155L431.467 230.691C434.839 233.587 436.198 238.253 436.467 241.995C436.768 246.196 435.888 251.175 432.861 255.715C428.016 262.981 420.093 261.999 416.453 261.123C415.874 260.983 415.307 260.826 414.764 260.661L411.628 265.998C411.603 266.097 411.566 266.26 411.521 266.501C411.454 266.859 411.394 267.244 411.311 267.778L411.31 267.787C411.234 268.271 411.136 268.905 411.013 269.538C410.819 270.536 410.356 272.829 408.925 274.86C408.102 276.029 406.831 277.304 404.974 278.116C403.1 278.935 401.222 279.024 399.621 278.769C398.837 278.645 398.304 278.578 397.842 278.566C397.695 278.563 397.581 278.566 397.494 278.571C397.408 278.725 397.287 278.98 397.155 279.377L389.837 276.932C397.153 279.383 397.155 279.377 397.155 279.377L396.966 279.944C396.846 280.301 396.675 280.813 396.465 281.437C396.046 282.685 395.475 284.38 394.866 286.168C393.81 289.272 392.549 292.934 391.816 294.868C391.619 296.093 392.102 298.293 396.205 302.349C399.115 305.226 402.483 307.766 406.136 310.523C407.989 311.921 409.915 313.374 411.892 314.955C451.633 346.722 464.086 389.055 464.086 414.93C464.086 429.741 461.033 446.226 458.095 458.738C456.613 465.052 455.131 470.472 454.018 474.322C453.461 476.248 452.994 477.785 452.665 478.848C452.5 479.38 452.37 479.794 452.279 480.079C452.233 480.222 452.198 480.332 452.173 480.409L452.143 480.5L448.117 478.848C448.117 478.848 452.131 480.539 444.8 478.131L448.117 478.848C446.79 482.906 443.248 481.74 439.199 480.409C435.151 479.079 436.143 479.779 437.47 475.722L437.495 475.647C437.513 475.588 437.543 475.497 437.582 475.374C437.614 475.275 437.651 475.156 437.695 475.018C437.76 474.81 437.839 474.558 437.93 474.264C438.234 473.285 438.672 471.841 439.199 470.017C440.256 466.365 441.667 461.203 443.077 455.196C445.925 443.065 448.657 427.95 448.657 414.93C448.657 393.259 437.968 355.577 402.272 327.042C401.014 326.037 399.514 324.902 397.893 323.676C393.836 320.608 389.023 316.968 385.371 313.357C380.305 308.35 374.327 300.469 376.975 290.583L377.093 290.141L377.263 289.716C377.748 288.5 379.023 284.822 380.264 281.177C380.864 279.414 381.428 277.739 381.843 276.504C382.051 275.886 382.22 275.38 382.338 275.028L382.518 274.489M382.521 274.481C384.367 268.937 387.964 265.328 392.63 263.852C393.945 263.437 395.245 263.229 396.455 263.148C396.692 261.986 397.13 260.267 398.053 258.631L398.087 258.571L405.337 248.015H409.329C410.886 248.015 412.798 247.852 413.321 248.015C414.011 248.23 416.75 247.807 417.314 248.015C418.62 248.499 421.306 248.015 421.306 248.015C421.306 248.015 421.376 244.989 421.306 244.014C421.286 243.741 421.023 242.591 420.982 242.387C420.982 242.387 377.206 218.756 372.266 216.008L366.582 212.551C365.861 211.863 365.335 211.506 365.016 211.327C364.971 211.371 364.925 211.419 364.876 211.473M409.97 259.002C409.97 259.002 410.001 259.008 410.071 259.029C410.007 259.014 409.97 259.002 409.97 259.002Z" fill="#2F3952"/>
<path d="M79.8027 458.23L66 471.281C69.7592 474.24 90.5326 490.403 96.685 492.806C103.861 495.609 112.722 497.181 122.391 494.921C130.007 493.141 137.451 489.14 144.548 482.537C148.613 485.046 154.401 488.071 161.358 490.13C168.52 492.25 177.14 493.407 186.411 491.722C193.763 490.386 201.145 487.33 208.238 482.064C208.543 482.257 208.857 482.453 209.181 482.652C213.54 485.328 219.822 488.626 227.29 490.855C234.769 493.088 243.754 494.339 253.256 492.531C260.696 491.116 268.037 487.901 274.905 482.405L275.369 482.712C279.634 485.518 285.81 488.996 293.178 491.352C300.563 493.713 309.495 495.054 318.961 493.125C326.353 491.619 333.569 488.22 340.275 482.491L340.683 482.756C345.011 485.546 351.256 489.008 358.627 491.355C366.002 493.703 374.922 495.064 384.275 493.117C391.352 491.645 398.178 488.38 404.423 482.947C408.438 485.856 414.191 489.396 421.144 491.823C428.37 494.346 437.189 495.765 446.688 493.722C454.067 492.136 461.297 488.581 468.133 482.659C472.142 485.381 477.898 488.702 484.834 490.968C491.952 493.294 500.591 494.593 509.869 492.716C516.984 491.278 526.427 485.838 533.085 480.456C536.004 478.096 544.16 472.549 546 473.794C543.243 471.929 540.825 470.045 539.091 468.62C538.229 467.912 537.548 467.327 537.092 466.928C536.864 466.729 536.693 466.576 536.585 466.479L536.47 466.375L536.448 466.355L533.085 456.063L523.756 466.768C517.382 473.533 511.317 476.423 506.114 477.475C500.822 478.545 495.586 477.88 490.681 476.278C485.742 474.664 481.423 472.187 478.273 470.029C476.72 468.965 475.505 468.015 474.699 467.351C474.297 467.02 474.001 466.762 473.819 466.601C473.728 466.521 473.666 466.464 473.633 466.435L473.624 466.426L473.608 466.411L466.862 460.043L460.713 466.924C454.11 474.311 447.908 477.41 442.708 478.528C437.439 479.661 432.241 478.962 427.343 477.252C422.398 475.526 418.066 472.867 414.893 470.536C413.33 469.387 412.107 468.361 411.294 467.642C410.889 467.283 410.59 467.004 410.405 466.828C410.313 466.74 410.25 466.678 410.216 466.646L410.208 466.638L410.199 466.629L410.189 466.619L403.217 459.542L396.897 467.137C391.218 473.96 385.495 476.841 380.416 477.898C375.172 478.989 369.687 478.324 364.342 476.622C358.992 474.919 354.203 472.305 350.676 470.032C348.935 468.91 347.558 467.907 346.635 467.201C346.175 466.849 345.832 466.574 345.617 466.398C345.509 466.31 345.434 466.247 345.393 466.212L345.371 466.194L345.363 466.187L345.356 466.181L338.595 460.323L332.707 466.935C326.55 473.849 320.496 476.806 315.179 477.89C309.734 478.999 304.195 478.314 298.915 476.626C293.615 474.931 288.928 472.333 285.497 470.076C283.803 468.962 282.469 467.966 281.579 467.267C281.136 466.919 280.806 466.647 280.601 466.474C280.498 466.388 280.427 466.326 280.389 466.293L280.374 466.28L280.364 466.272L280.356 466.264L273.816 460.416L267.795 466.736C261.548 473.293 255.324 476.181 249.713 477.249C243.973 478.341 238.16 477.658 232.684 476.024C227.197 474.386 222.367 471.883 218.851 469.725C217.113 468.657 215.745 467.705 214.834 467.037C214.38 466.703 214.042 466.443 213.832 466.279C213.727 466.196 213.655 466.138 213.615 466.106L213.6 466.094L213.591 466.086L213.582 466.079L207.398 460.919L201.552 466.423C194.955 472.634 188.618 475.394 183.021 476.411C177.337 477.444 171.79 476.789 166.711 475.286C161.605 473.774 157.194 471.468 154.014 469.484C152.442 468.502 151.216 467.628 150.407 467.02C150.004 466.716 149.707 466.481 149.526 466.334L149.344 466.185L149.321 466.165L142.447 460.23L136.596 467.042C129.55 475.247 123.176 478.61 118.085 479.8C112.997 480.989 108.108 480.262 103.509 478.466C98.8298 476.638 94.7442 473.804 91.7358 471.281C90.2587 470.043 89.1072 468.935 88.3424 468.156C87.9615 467.768 87.6806 467.466 87.5075 467.276C87.4211 467.181 87.3618 467.114 87.3308 467.079L87.3088 467.054L79.8027 458.23Z" fill="#2F3952"/>
<path fill-rule="evenodd" clip-rule="evenodd" d="M275.563 350.32L275.557 350.341L273.493 357.318C273.517 358.527 273.746 359.916 274.341 361.452C276.616 367.317 285.463 378.08 317.72 387.651C319.747 388.253 321.439 389.662 322.4 391.55C323.362 393.437 323.508 395.637 322.805 397.635L315.53 395.064C322.805 397.635 322.805 397.635 322.805 397.635L322.547 398.37C322.377 398.852 322.128 399.562 321.809 400.474C321.172 402.297 320.255 404.923 319.14 408.133C316.91 414.554 313.89 423.305 310.727 432.632C304.344 451.451 297.548 472.119 295.329 481.014C294.296 485.156 290.108 487.674 285.974 486.639C281.841 485.603 279.328 481.406 280.362 477.264C282.771 467.604 289.818 446.235 296.119 427.656C299.298 418.283 302.331 409.495 304.569 403.051C304.943 401.976 305.294 400.966 305.62 400.029C286.568 393.569 274.493 386.133 267.263 378.378L236.807 481.336C235.596 485.43 231.303 487.764 227.218 486.551C223.133 485.337 220.804 481.035 222.015 476.941L258.172 354.71C258.301 353.307 258.533 352.01 258.82 350.84C259.321 348.803 259.986 347.152 260.554 345.968C260.744 345.57 260.926 345.221 261.089 344.924C265.321 332.297 275.883 326.597 286.458 324.78C297.054 322.959 308.719 324.711 317.776 327.473C333.926 332.4 344.912 339.267 350.876 347.724C356.991 356.395 357.212 365.892 353.535 373.996L321.886 487.026C320.735 491.137 312.291 488.179 308.189 487.026C304.087 485.872 305.881 486.959 307.032 482.848L335.129 382.503C334.228 382.485 333.327 382.443 332.431 382.383C324.925 381.874 316.069 379.905 308.189 377.327C300.511 374.815 292.692 371.382 287.874 367.435C285.787 365.725 282.242 362.316 282.08 357.32C281.881 351.185 286.571 347.824 289.778 346.317C293.636 344.505 298.229 346.17 300.037 350.036C301.114 352.338 300.96 354.902 299.845 356.982C302.817 358.77 307.405 360.806 312.977 362.628C320.005 364.927 327.571 366.556 333.472 366.956C336.454 367.158 338.577 367.014 339.851 366.723C341.025 363.556 340.789 360.211 338.277 356.648C335.126 352.18 327.883 346.719 313.283 342.266C305.649 339.937 296.529 338.737 289.066 340.019C281.849 341.26 277.337 344.48 275.563 350.32ZM340.595 366.492C340.595 366.492 340.571 366.508 340.506 366.534C340.56 366.503 340.595 366.492 340.595 366.492ZM296.877 354.733C296.877 354.733 296.915 354.77 296.965 354.846C296.897 354.77 296.877 354.733 296.877 354.733Z" fill="#2F3952"/>
<path fill-rule="evenodd" clip-rule="evenodd" d="M398.053 172.275C400.275 171.665 402.652 172.082 404.535 173.412L439.248 197.931C441.306 199.384 442.527 201.753 442.518 204.276C442.51 206.799 441.274 209.159 439.207 210.599L417.8 225.507C415.287 227.258 411.938 237.616 409.328 236.014L373.399 216.01C370.088 213.978 379.792 203.555 381.383 200.006L393.054 176.563C393.998 174.457 395.832 172.884 398.053 172.275ZM401.344 188.004L389.367 208.008L409.328 216.01L425.297 204.007L401.344 188.004Z" fill="#2F3952"/>
</svg>
