<svg width="140" height="140" viewBox="0 0 140 140" fill="none" xmlns="http://www.w3.org/2000/svg">
<rect width="140" height="140" rx="50" fill="#FFE9A7" fill-opacity="0.9"/>
<path d="M57.0014 99.852V90.8066V78.6535H81.7545H108.115C110.025 78.6535 115 78.6535 115 70.4547C115 62.3139 110.026 62.3139 108.115 62.3139L81.7545 62.3139H57.0014V49.6505V39.5273C56.247 38.6227 55.7713 37.1534 52.9429 38.6255C52.4463 38.8838 46.2899 44.8585 39.2618 51.9024C25.2185 65.9777 25.3952 65.7626 25.0406 69.2225C24.8467 71.1163 25.3588 73.4606 26.3241 75.0977C27.1164 76.4415 52.0053 101.289 53.1175 101.846C56.4029 103.442 57.0757 101.182 57.0014 99.852Z" fill="#2F3952"/>
</svg>
