<svg width="64" height="64" viewBox="0 0 64 64" fill="none" xmlns="http://www.w3.org/2000/svg">
<path d="M64 32C64 49.6729 49.6729 64 32 64C14.3271 64 0 49.6729 0 32C0 14.3271 14.3271 0 32 0C49.6729 0 64 14.3271 64 32Z" fill="#FFCC4D"/>
<path d="M51.5553 17.7777C41.6815 17.7777 37.6851 10.0142 37.5197 9.68352C37.0806 8.8053 37.4362 7.73686 38.3144 7.29775C39.1908 6.86041 40.2557 7.21241 40.6966 8.0853C40.8299 8.34486 43.9339 14.2222 51.5553 14.2222C52.5384 14.2222 53.3331 15.0186 53.3331 16C53.3331 16.9813 52.5384 17.7777 51.5553 17.7777ZM12.4442 17.7777C11.4628 17.7777 10.6664 16.9813 10.6664 16C10.6664 15.0186 11.4628 14.2222 12.4442 14.2222C21.4806 14.2222 23.1037 8.67552 23.1695 8.43908C23.4273 7.50041 24.3997 6.93152 25.3366 7.17864C26.2788 7.42575 26.8495 8.37508 26.6131 9.32086C26.5259 9.66575 24.3624 17.7777 12.4442 17.7777ZM10.6682 40.8889C10.1277 40.8889 9.59439 40.6435 9.24417 40.1777C8.65395 39.3937 8.81395 38.2791 9.59973 37.6906C9.85395 37.5004 14.8459 33.8097 21.7882 32.4764C17.3882 30.2702 12.5046 30.2222 12.4424 30.2222C11.4611 30.2204 10.6664 29.4222 10.6682 28.4409C10.6682 27.4613 11.4628 26.6666 12.4442 26.6666C12.8371 26.6666 22.1366 26.7342 27.9233 32.5209C28.4317 33.0293 28.5846 33.7937 28.3091 34.4586C28.0335 35.1235 27.3846 35.5555 26.6664 35.5555C18.4655 35.5555 11.7988 40.4835 11.7331 40.5333C11.4131 40.7733 11.0379 40.8889 10.6682 40.8889V40.8889ZM53.3313 40.8871C52.9615 40.8871 52.5882 40.7733 52.2682 40.5351C52.2006 40.4835 45.4931 35.5555 37.3331 35.5555C36.6148 35.5555 35.9642 35.1235 35.6904 34.4586C35.4148 33.7937 35.5677 33.0293 36.0762 32.5209C41.8646 26.7342 51.1624 26.6666 51.5553 26.6666C52.5366 26.6666 53.3295 27.4613 53.3313 28.4409C53.3331 29.4222 52.5384 30.2186 51.5588 30.2222C51.4948 30.2222 46.6113 30.2702 42.2113 32.4764C49.1535 33.8097 54.1455 37.4986 54.3979 37.6906C55.1819 38.2791 55.3419 39.3902 54.7553 40.176C54.4068 40.64 53.8735 40.8871 53.3313 40.8871ZM45.2513 54.7395C45.0415 54.2826 40.0282 43.5555 32.4335 43.5555C24.8797 43.5555 19.0184 54.2346 18.7731 54.688C18.5722 55.0595 18.6611 55.5217 18.9846 55.792C19.1499 55.9306 19.3526 56 19.5553 56C19.7508 56 19.9464 55.936 20.1082 55.8062C20.1633 55.7635 25.7313 51.3991 32.4335 51.3991C39.0877 51.3991 43.7899 55.7191 43.8362 55.7617C44.1473 56.0497 44.6219 56.0817 44.9633 55.8329C45.3082 55.584 45.4291 55.1271 45.2513 54.7395Z" fill="#664500"/>
</svg>
