<svg width="64" height="64" viewBox="0 0 64 64" fill="none" xmlns="http://www.w3.org/2000/svg">
<path d="M64 32C64 49.6729 49.6729 64 32 64C14.3271 64 0 49.6729 0 32C0 14.3271 14.3271 0 32 0C49.6729 0 64 14.3271 64 32Z" fill="#FFCC4D"/>
<path fill-rule="evenodd" clip-rule="evenodd" d="M2.20441 19.5876C2.63108 20.0125 4.76085 21.2889 5.18574 22.5653C5.61241 23.84 6.46574 31.0702 9.02219 33.1982C11.6586 35.3885 21.6035 34.5742 23.5075 33.6249C27.7689 31.5005 28.2915 25.5698 29.0453 22.5653C29.4702 20.864 32.0266 20.864 32.0266 20.864C32.0266 20.864 34.5831 20.864 35.0097 22.5636C35.7635 25.5698 36.2897 31.5005 40.5475 33.6231C42.4533 34.5742 52.3982 35.3902 55.0382 33.2C57.5911 31.072 58.4426 23.8418 58.8693 22.5653C59.2924 21.2907 61.4257 20.0142 61.8506 19.5893C62.2791 19.1645 62.2791 17.4631 61.8506 17.0365C60.9991 16.1867 50.9457 15.4293 40.1209 16.6116C37.9609 16.848 37.1395 17.4613 32.0249 17.4613C26.9137 17.4613 26.0889 16.8462 23.9306 16.6116C13.1129 15.4276 3.05774 16.1849 2.20441 17.0347C1.77952 17.4596 1.77952 19.1627 2.20441 19.5876V19.5876Z" fill="#292F33"/>
<path d="M48.5957 42.0072C48.2792 41.721 47.8063 41.7032 47.4668 41.9556C47.3974 42.0072 40.4943 47.1112 32.0001 47.1112C23.5272 47.1112 16.601 42.0072 16.5334 41.9556C16.1939 41.7032 15.721 41.7245 15.4046 42.0072C15.0899 42.2916 15.0188 42.761 15.2374 43.1236C15.4668 43.5058 20.9566 52.4445 32.0001 52.4445C43.0437 52.4445 48.5352 43.5058 48.7628 43.1236C48.9814 42.7592 48.9121 42.2916 48.5957 42.0072V42.0072Z" fill="#664500"/>
</svg>
