<svg width="64" height="64" viewBox="0 0 64 64" fill="none" xmlns="http://www.w3.org/2000/svg">
<path d="M32 64C49.6731 64 64 49.6731 64 32C64 14.3269 49.6731 0 32 0C14.3269 0 0 14.3269 0 32C0 49.6731 14.3269 64 32 64Z" fill="#FFCC4D"/>
<path d="M45.3066 48.6738C45.2266 48.3556 43.2301 40.8889 31.9999 40.8889C20.7679 40.8889 18.7732 48.3556 18.6932 48.6738C18.5955 49.0596 18.7697 49.4596 19.1146 49.6587C19.4612 49.856 19.895 49.7974 20.1812 49.5218C20.215 49.488 23.655 46.2222 31.9999 46.2222C40.3448 46.2222 43.7866 49.488 43.8186 49.52C43.9892 49.6889 44.2168 49.7778 44.4444 49.7778C44.5937 49.7778 44.7448 49.7405 44.8817 49.664C45.2301 49.4649 45.4044 49.0614 45.3066 48.6738Z" fill="#664500"/>
<path d="M21.3334 30.2223C23.788 30.2223 25.7778 27.4365 25.7778 24.0001C25.7778 20.5636 23.788 17.7778 21.3334 17.7778C18.8788 17.7778 16.8889 20.5636 16.8889 24.0001C16.8889 27.4365 18.8788 30.2223 21.3334 30.2223Z" fill="#664500"/>
<path d="M42.6666 30.2223C45.1212 30.2223 47.1111 27.4365 47.1111 24.0001C47.1111 20.5636 45.1212 17.7778 42.6666 17.7778C40.212 17.7778 38.2222 20.5636 38.2222 24.0001C38.2222 27.4365 40.212 30.2223 42.6666 30.2223Z" fill="#664500"/>
</svg>
