<svg width="85" height="84" viewBox="0 0 85 84" fill="none" xmlns="http://www.w3.org/2000/svg">
<g filter="url(#filter0_d_634_5)">
<rect x="3" width="79.4725" height="79.4725" rx="26.4908" fill="#778BEA"/>
</g>
<path d="M59.1103 15.9104C52.6103 24.4104 51.1103 27.4104 51.1103 27.4104C48.6103 31.4104 42.6101 39.9104 42.6101 39.9104L36.6101 48.4104L31.1101 42.9104L26.1101 37.9104C25.6101 37.4104 24.7013 37.1499 24.1101 37.4104C24.1101 37.4104 21.9609 39.3241 20.7059 40.4148C19.0316 41.8699 18.3331 42.7882 18.3331 42.7882C17.6101 43.9104 18.2815 44.9296 18.3331 45.1516C18.4085 45.4757 25.6103 52.9104 25.6103 52.9104L34.6103 61.9104C37.1103 64.4104 39.3628 63.3256 40.6103 62.4104C41.3154 61.8931 47.1103 52.9104 47.1103 52.9104L60.1103 33.9104L67.6103 22.9104C69.6103 19.4104 67.5584 19.0351 67.1103 18.4104C66.8256 18.0137 64.0246 15.7378 63.1103 15.4104C62.4052 15.1578 60.1103 14.4104 59.1103 15.9104Z" fill="#2F3952"/>
<defs>
<filter id="filter0_d_634_5" x="0.880734" y="0" width="83.7109" height="83.7109" filterUnits="userSpaceOnUse" color-interpolation-filters="sRGB">
<feFlood flood-opacity="0" result="BackgroundImageFix"/>
<feColorMatrix in="SourceAlpha" type="matrix" values="0 0 0 0 0 0 0 0 0 0 0 0 0 0 0 0 0 0 127 0" result="hardAlpha"/>
<feOffset dy="2.11927"/>
<feGaussianBlur stdDeviation="1.05963"/>
<feComposite in2="hardAlpha" operator="out"/>
<feColorMatrix type="matrix" values="0 0 0 0 0 0 0 0 0 0 0 0 0 0 0 0 0 0 0.25 0"/>
<feBlend mode="normal" in2="BackgroundImageFix" result="effect1_dropShadow_634_5"/>
<feBlend mode="normal" in="SourceGraphic" in2="effect1_dropShadow_634_5" result="shape"/>
</filter>
</defs>
</svg>
