<svg width="289" height="85" viewBox="0 0 289 85" fill="none" xmlns="http://www.w3.org/2000/svg">
<g filter="url(#filter0_d_616_2)">
<rect x="3.20691" y="0.87915" width="282.759" height="78.4655" rx="39.2328" fill="#2F3952"/>
</g>
<path d="M37.8745 48.3276V31.2406H43.4606C45.3149 31.2406 46.7075 31.624 47.6385 32.3907C48.5774 33.1574 49.0468 34.2919 49.0468 35.794C49.0468 36.5921 48.8199 37.3001 48.3661 37.9182C47.9123 38.5284 47.2943 39.0018 46.5119 39.3382C47.4351 39.5964 48.1627 40.0893 48.6947 40.8169C49.2346 41.5366 49.5045 42.3973 49.5045 43.3987C49.5045 44.9321 49.0077 46.137 48.0141 47.0133C47.0204 47.8895 45.6161 48.3276 43.801 48.3276H37.8745ZM40.1277 40.3357V46.4851H43.8479C44.8963 46.4851 45.7217 46.2152 46.3241 45.6754C46.9344 45.1277 47.2395 44.3767 47.2395 43.4222C47.2395 41.3645 46.1207 40.3357 43.8831 40.3357H40.1277ZM40.1277 38.5284H43.5311C44.5168 38.5284 45.3031 38.282 45.8899 37.7891C46.4845 37.2962 46.7818 36.6273 46.7818 35.7823C46.7818 34.8434 46.508 34.1628 45.9603 33.7403C45.4127 33.31 44.5794 33.0948 43.4606 33.0948H40.1277V38.5284ZM57.7781 48.5623C56.0568 48.5623 54.6564 47.999 53.5767 46.8724C52.497 45.738 51.9572 44.2241 51.9572 42.3308V41.9317C51.9572 40.6721 52.1958 39.5494 52.6731 38.5636C53.1581 37.57 53.831 36.7955 54.6916 36.24C55.56 35.6767 56.4989 35.395 57.5081 35.395C59.1589 35.395 60.442 35.9388 61.3574 37.0263C62.2728 38.1138 62.7305 39.6707 62.7305 41.697V42.6007H54.1283C54.1596 43.8525 54.5234 44.8656 55.2197 45.6402C55.9238 46.4069 56.8157 46.7903 57.8954 46.7903C58.6621 46.7903 59.3115 46.6338 59.8435 46.3209C60.3755 46.0079 60.841 45.5932 61.2401 45.0769L62.5662 46.1096C61.5022 47.7448 59.9061 48.5623 57.7781 48.5623ZM57.5081 37.1788C56.6319 37.1788 55.8965 37.4996 55.3018 38.1411C54.7072 38.7749 54.3395 39.6668 54.1987 40.8169H60.5594V40.6526C60.4968 39.5494 60.1995 38.6966 59.6675 38.0942C59.1355 37.484 58.4157 37.1788 57.5081 37.1788ZM75.98 42.1195C75.98 44.052 75.5379 45.6089 74.6538 46.7903C73.7698 47.9717 72.5727 48.5623 71.0627 48.5623C69.5215 48.5623 68.3088 48.0734 67.4247 47.0954V53.2096H65.2536V35.6297H67.2369L67.3426 37.038C68.2266 35.9427 69.455 35.395 71.0275 35.395C72.5532 35.395 73.758 35.9701 74.6421 37.1202C75.534 38.2702 75.98 39.8702 75.98 41.92V42.1195ZM73.8089 41.8731C73.8089 40.4413 73.5037 39.3108 72.8935 38.4815C72.2832 37.6522 71.4461 37.2375 70.3821 37.2375C69.0677 37.2375 68.0819 37.8204 67.4247 38.9861V45.0534C68.0741 46.2113 69.0677 46.7903 70.4055 46.7903C71.4461 46.7903 72.2715 46.3795 72.8818 45.558C73.4998 44.7287 73.8089 43.5004 73.8089 41.8731ZM89.1238 48.3276H86.9527V42.9058H81.1201V48.3276H78.9373V35.6297H81.1201V41.1337H86.9527V35.6297H89.1238V48.3276ZM96.7754 45.1473L99.7328 35.6297H102.056L96.9514 50.2875C96.1612 52.3999 94.9055 53.4561 93.1843 53.4561L92.7736 53.4209L91.9638 53.2683V51.508L92.5506 51.5549C93.286 51.5549 93.8572 51.4063 94.264 51.109C94.6787 50.8117 95.019 50.2679 95.285 49.4777L95.7662 48.1868L91.2362 35.6297H93.6068L96.7754 45.1473ZM113.44 37.3901H109.18V48.3276H107.009V37.3901H102.831V35.6297H113.44V37.3901ZM117.923 40.0071H121.221C122.66 40.0228 123.799 40.3983 124.636 41.1337C125.473 41.8692 125.891 42.8667 125.891 44.1263C125.891 45.3937 125.461 46.4108 124.6 47.1775C123.74 47.9443 122.582 48.3276 121.127 48.3276H115.752V35.6297H117.923V40.0071ZM117.923 41.7792V46.5556H121.15C121.964 46.5556 122.594 46.3482 123.04 45.9336C123.486 45.5111 123.709 44.9361 123.709 44.2084C123.709 43.5043 123.49 42.9293 123.051 42.4833C122.621 42.0295 122.015 41.7948 121.232 41.7792H117.923ZM133.696 46.7903C134.47 46.7903 135.147 46.5556 135.726 46.0861C136.305 45.6167 136.626 45.0299 136.688 44.3258H138.742C138.703 45.0534 138.452 45.7458 137.991 46.403C137.529 47.0602 136.911 47.5844 136.137 47.9756C135.37 48.3668 134.556 48.5623 133.696 48.5623C131.967 48.5623 130.59 47.9873 129.565 46.8372C128.548 45.6793 128.039 44.0989 128.039 42.096V41.7322C128.039 40.4961 128.266 39.3969 128.72 38.4345C129.173 37.4722 129.823 36.7251 130.668 36.193C131.521 35.661 132.526 35.395 133.684 35.395C135.108 35.395 136.289 35.8214 137.228 36.6742C138.175 37.527 138.679 38.634 138.742 39.9954H136.688C136.626 39.1739 136.313 38.501 135.749 37.9768C135.194 37.4448 134.505 37.1788 133.684 37.1788C132.581 37.1788 131.724 37.5778 131.114 38.3759C130.511 39.1661 130.21 40.3122 130.21 41.8144V42.2251C130.21 43.6882 130.511 44.8148 131.114 45.605C131.716 46.3952 132.577 46.7903 133.696 46.7903ZM150.888 35.6297V48.3276H148.705V43.387H145.431L142.439 48.3276H140.091L143.284 43.0584C142.47 42.7611 141.844 42.3034 141.406 41.6853C140.976 41.0594 140.76 40.3318 140.76 39.5025C140.76 38.3446 141.195 37.4135 142.063 36.7094C142.931 35.9974 144.093 35.6376 145.549 35.6297H150.888ZM142.943 39.5259C142.943 40.144 143.154 40.6447 143.577 41.0281C143.999 41.4036 144.559 41.5953 145.255 41.6031H148.705V37.3901H145.584C144.778 37.3901 144.136 37.5896 143.659 37.9886C143.182 38.3798 142.943 38.8922 142.943 39.5259ZM170.71 48.3276H168.539V42.9058H162.706V48.3276H160.523V35.6297H162.706V41.1337H168.539V35.6297H170.71V48.3276ZM182.046 48.3276C181.921 48.0773 181.819 47.6313 181.741 46.9898C180.732 48.0382 179.527 48.5623 178.126 48.5623C176.875 48.5623 175.846 48.2103 175.04 47.5061C174.242 46.7942 173.843 45.8945 173.843 44.807C173.843 43.4848 174.344 42.4598 175.345 41.7322C176.354 40.9968 177.771 40.6291 179.593 40.6291H181.706V39.6316C181.706 38.8727 181.479 38.2702 181.025 37.8243C180.571 37.3705 179.902 37.1436 179.018 37.1436C178.244 37.1436 177.594 37.3392 177.07 37.7304C176.546 38.1216 176.284 38.5949 176.284 39.1504H174.101C174.101 38.5167 174.324 37.9064 174.77 37.3197C175.224 36.7251 175.834 36.2556 176.601 35.9114C177.375 35.5671 178.224 35.395 179.147 35.395C180.611 35.395 181.757 35.7627 182.586 36.4982C183.415 37.2258 183.846 38.2311 183.877 39.5142V45.3585C183.877 46.5243 184.026 47.4514 184.323 48.1399V48.3276H182.046ZM178.443 46.6729C179.124 46.6729 179.769 46.4969 180.38 46.1448C180.99 45.7928 181.432 45.3351 181.706 44.7718V42.1665H180.004C177.344 42.1665 176.014 42.9449 176.014 44.5018C176.014 45.1825 176.241 45.7145 176.695 46.0979C177.149 46.4812 177.731 46.6729 178.443 46.6729ZM197.197 42.9175H195.613V48.3276H193.43V35.6297H195.613V41.0046H197.033L201.304 35.6297H203.933L198.91 41.7322L204.356 48.3276H201.598L197.197 42.9175ZM214.061 48.3276C213.936 48.0773 213.834 47.6313 213.756 46.9898C212.746 48.0382 211.542 48.5623 210.141 48.5623C208.889 48.5623 207.861 48.2103 207.055 47.5061C206.257 46.7942 205.858 45.8945 205.858 44.807C205.858 43.4848 206.358 42.4598 207.36 41.7322C208.369 40.9968 209.785 40.6291 211.608 40.6291H213.721V39.6316C213.721 38.8727 213.494 38.2702 213.04 37.8243C212.586 37.3705 211.917 37.1436 211.033 37.1436C210.259 37.1436 209.609 37.3392 209.085 37.7304C208.561 38.1216 208.299 38.5949 208.299 39.1504H206.116C206.116 38.5167 206.339 37.9064 206.785 37.3197C207.239 36.7251 207.849 36.2556 208.616 35.9114C209.39 35.5671 210.239 35.395 211.162 35.395C212.625 35.395 213.771 35.7627 214.601 36.4982C215.43 37.2258 215.86 38.2311 215.892 39.5142V45.3585C215.892 46.5243 216.04 47.4514 216.338 48.1399V48.3276H214.061ZM210.458 46.6729C211.139 46.6729 211.784 46.4969 212.394 46.1448C213.005 45.7928 213.447 45.3351 213.721 44.7718V42.1665H212.019C209.359 42.1665 208.029 42.9449 208.029 44.5018C208.029 45.1825 208.256 45.7145 208.709 46.0979C209.163 46.4812 209.746 46.6729 210.458 46.6729ZM230.021 42.1195C230.021 44.052 229.579 45.6089 228.695 46.7903C227.811 47.9717 226.614 48.5623 225.104 48.5623C223.563 48.5623 222.35 48.0734 221.466 47.0954V53.2096H219.295V35.6297H221.278L221.384 37.038C222.268 35.9427 223.496 35.395 225.069 35.395C226.594 35.395 227.799 35.9701 228.683 37.1202C229.575 38.2702 230.021 39.8702 230.021 41.92V42.1195ZM227.85 41.8731C227.85 40.4413 227.545 39.3108 226.935 38.4815C226.325 37.6522 225.487 37.2375 224.423 37.2375C223.109 37.2375 222.123 37.8204 221.466 38.9861V45.0534C222.115 46.2113 223.109 46.7903 224.447 46.7903C225.487 46.7903 226.313 46.3795 226.923 45.558C227.541 44.7287 227.85 43.5004 227.85 41.8731ZM241.287 37.3901H237.027V48.3276H234.856V37.3901H230.678V35.6297H241.287V37.3901ZM247.695 45.1473L250.652 35.6297H252.976L247.871 50.2875C247.081 52.3999 245.825 53.4561 244.104 53.4561L243.693 53.4209L242.883 53.2683V51.508L243.47 51.5549C244.206 51.5549 244.777 51.4063 245.184 51.109C245.598 50.8117 245.939 50.2679 246.205 49.4777L246.686 48.1868L242.156 35.6297H244.526L247.695 45.1473Z" fill="#63CDDA"/>
<defs>
<filter id="filter0_d_616_2" x="0.379323" y="0.87915" width="288.414" height="84.1207" filterUnits="userSpaceOnUse" color-interpolation-filters="sRGB">
<feFlood flood-opacity="0" result="BackgroundImageFix"/>
<feColorMatrix in="SourceAlpha" type="matrix" values="0 0 0 0 0 0 0 0 0 0 0 0 0 0 0 0 0 0 127 0" result="hardAlpha"/>
<feOffset dy="2.82759"/>
<feGaussianBlur stdDeviation="1.41379"/>
<feComposite in2="hardAlpha" operator="out"/>
<feColorMatrix type="matrix" values="0 0 0 0 0 0 0 0 0 0 0 0 0 0 0 0 0 0 0.25 0"/>
<feBlend mode="normal" in2="BackgroundImageFix" result="effect1_dropShadow_616_2"/>
<feBlend mode="normal" in="SourceGraphic" in2="effect1_dropShadow_616_2" result="shape"/>
</filter>
</defs>
</svg>
